# xmcd CD database file
#
# Track frame offsets:
#	150
#	28105
#	67867
#	94760
#	119892
#	144217
#	166167
#	195200
#	210000
#	228117
#
# Disc length: 3472 seconds
#
# Revision: 0
# Processed by: cddbd v1.5.1PL0 Copyright (c) Steve Scherf et al.
# Submitted via: CDex 1.51
#
DISCID=740d8e0a
DTITLE=McCoy Tyner - Illuminations
DYEAR=2004
DGENRE=Jazz
TTITLE0=Illuminations
TTITLE1=Angelina
TTITLE2=New Orleans Stomp
TTITLE3=Come Rain Or Come Shine
TTITLE4=Soulstice
TTITLE5=Blessings
TTITLE6=If I Should Lose You
TTITLE7=The Chase
TTITLE8=West Philly Tone Poem
TTITLE9=Alone Together
EXTD=YEAR: 2004
EXTT0=
EXTT1=
EXTT2=
EXTT3=
EXTT4=
EXTT5=
EXTT6=
EXTT7=
EXTT8=
EXTT9=
PLAYORDER=
